<svg width="42" height="30" viewBox="0 0 42 30" fill="none" xmlns="http://www.w3.org/2000/svg">
<path fill-rule="evenodd" clip-rule="evenodd" d="M42 16.5001L2.62268e-07 16.5001L0 13.5001L42 13.5001L42 16.5001Z" fill="#CCDEC0"/>
<path fill-rule="evenodd" clip-rule="evenodd" d="M29.2574 10.6133C26.9676 7.35864 26.3767 3.50286 26.5202 0.917084L29.5156 1.08328C29.4001 3.16418 29.8968 6.30839 31.711 8.88708C33.4657 11.3812 36.5554 13.5002 41.9999 13.5002V16.5002C35.6374 16.5002 31.6067 13.9525 29.2574 10.6133Z" fill="#CCDEC0"/>
<path fill-rule="evenodd" clip-rule="evenodd" d="M29.2574 19.3869C26.9676 22.6415 26.3767 26.4973 26.5202 29.0831L29.5156 28.9169C29.4001 26.836 29.8968 23.6918 31.711 21.1131C33.4657 18.619 36.5554 16.5 41.9999 16.5V13.5C35.6374 13.5 31.6067 16.0476 29.2574 19.3869Z" fill="#CCDEC0"/>
</svg>
