<svg width="48" height="64" viewBox="0 0 48 64" fill="none" xmlns="http://www.w3.org/2000/svg">
<path fill-rule="evenodd" clip-rule="evenodd" d="M24.222 0.5C11.1406 0.5 0.5 11.1406 0.5 24.222C0.5 27.566 1.91659 31.5907 3.88137 35.6226C5.86842 39.7002 8.51202 43.9736 11.1604 47.8706C16.4592 55.6677 21.863 62.0826 22.3145 62.6156L22.3151 62.6163C22.7884 63.1743 23.4848 63.5 24.222 63.5C24.9556 63.5 25.6539 63.178 26.13 62.6151C26.581 62.0822 31.9848 55.667 37.2836 47.8699C39.932 43.9729 42.5756 39.6995 44.5626 35.6221C46.5274 31.5903 47.944 27.5657 47.944 24.222C47.944 11.1406 37.3034 0.5 24.222 0.5ZM5.5 24.222C5.5 13.9004 13.9004 5.5 24.222 5.5C34.5436 5.5 42.944 13.9004 42.944 24.222C42.944 26.3755 42.0362 29.2888 40.457 32.6518C38.8977 35.9725 36.7654 39.5649 34.4937 43.0238C30.6974 48.8042 26.5686 54.1266 24.222 57.0514C21.8754 54.1266 17.7466 48.8042 13.9503 43.0238C11.6786 39.5649 9.54627 35.9725 7.98701 32.6518C6.40781 29.2888 5.5 26.3755 5.5 24.222ZM24.222 11.833C17.3896 11.833 11.833 17.3896 11.833 24.222C11.833 31.0544 17.3896 36.611 24.222 36.611C31.0544 36.611 36.611 31.0544 36.611 24.222C36.611 17.3896 31.0544 11.833 24.222 11.833ZM16.834 24.222C16.834 20.1493 20.1495 16.833 24.223 16.833C28.2966 16.833 31.612 20.1484 31.612 24.222C31.612 28.2956 28.2966 31.611 24.223 31.611C20.1495 31.611 16.834 28.2947 16.834 24.222Z" fill="#1D4789"/>
</svg>
