<svg width="1705" height="1291" viewBox="0 0 1705 1291" fill="none" xmlns="http://www.w3.org/2000/svg">
<path opacity="0.4" d="M-41.7554 169.969C-41.7554 67.0325 107.558 0 545.438 0C1171.55 0 1705 168.377 1705 465.69C1705 614.435 1497.18 692.787 1257.32 627.524L768.085 493.459C655.57 462.33 606.593 522.818 704.547 568.627L1433.64 906.973C1543.77 959.326 1604.93 1018.05 1604.93 1078.53C1604.93 1241.96 1311.33 1290.95 985.966 1290.95C658.218 1292.54 291.288 1255.05 149.387 1210.83C19.6643 1169.97 -48.6386 1117.62 -41.4906 1024.59C-34.0779 926.605 75.7892 887.341 286.258 936.333L1286.71 1169.97C1406.64 1197.74 1472.56 1130.71 1472.56 1094.81C1472.56 1053.95 1452.97 1021.23 1338.07 996.822L383.947 794.132C168.713 748.324 134.562 671.563 134.562 611.075C134.562 532.723 198.099 457.378 383.947 442.698L1259.71 370.713C1409.02 357.625 1465.15 324.904 1465.15 277.504C1465.15 230.104 1401.61 187.656 1259.71 195.792L183.274 259.464C-0.191193 270.96 -41.7554 221.791 -41.7554 169.615V169.969Z" fill="#1D4789"/>
</svg>
