<svg width="31" height="31" viewBox="0 0 31 31" fill="none" xmlns="http://www.w3.org/2000/svg">
<path d="M21.3533 17.1874C21.3028 17.1632 19.4161 16.2331 19.0808 16.1123C18.9439 16.0631 18.7973 16.015 18.6413 16.015C18.3866 16.015 18.1726 16.1421 18.0058 16.3918C17.8174 16.6723 17.2468 17.3399 17.0705 17.5393C17.0475 17.5657 17.0161 17.5971 16.9973 17.5971C16.9804 17.5971 16.6884 17.4767 16.6 17.4383C14.576 16.5582 13.0397 14.4417 12.8291 14.0848C12.799 14.0335 12.7977 14.0102 12.7975 14.0102C12.8049 13.983 12.8729 13.9147 12.908 13.8795C13.0108 13.7777 13.1221 13.6435 13.2299 13.5137C13.2809 13.4522 13.332 13.3907 13.3821 13.3326C13.5384 13.1506 13.608 13.0093 13.6887 12.8456L13.7309 12.7605C13.9279 12.3688 13.7597 12.0382 13.7053 11.9315C13.6607 11.8422 12.864 9.91738 12.7793 9.71516C12.5756 9.2272 12.3065 9 11.9325 9C11.8978 9 11.9325 9 11.7869 9.00614C11.6097 9.01363 10.6447 9.14081 10.218 9.41007C9.76549 9.69565 9 10.606 9 12.2069C9 13.6477 9.91338 15.0082 10.3055 15.5256C10.3153 15.5386 10.3332 15.5651 10.3591 15.6031C11.861 17.7987 13.7332 19.4259 15.6311 20.1849C17.4583 20.9155 18.3236 21 18.8154 21H18.8155C19.0222 21 19.1877 20.9838 19.3336 20.9694L19.4262 20.9605C20.0575 20.9045 21.4446 20.185 21.7601 19.3072C22.0087 18.6159 22.0742 17.8605 21.9088 17.5864C21.7956 17.4 21.6004 17.3062 21.3533 17.1874Z" fill="#CCDEC0"/>
<path d="M15.7752 0C7.37938 0 0.548918 6.77914 0.548918 15.1118C0.548918 17.8069 1.27017 20.445 2.63649 22.7539L0.0213143 30.4682C-0.0274 30.612 0.00883376 30.771 0.11522 30.8793C0.192016 30.9577 0.296188 31 0.402574 31C0.443337 31 0.484402 30.9939 0.52446 30.9811L8.56836 28.425C10.7696 29.6011 13.2574 30.2219 15.7753 30.2219C24.1702 30.222 31 23.4435 31 15.1118C31 6.77914 24.1702 0 15.7752 0ZM15.7752 27.0741C13.406 27.0741 11.1113 26.39 9.13874 25.0956C9.07241 25.052 8.99541 25.0297 8.91791 25.0297C8.87695 25.0297 8.83588 25.0359 8.79592 25.0486L4.76643 26.3295L6.06722 22.4918C6.10929 22.3676 6.08826 22.2306 6.01076 22.1247C4.50866 20.0723 3.71464 17.6474 3.71464 15.1118C3.71464 8.51494 9.12495 3.14791 15.7751 3.14791C22.4243 3.14791 27.834 8.51494 27.834 15.1118C27.8342 21.7079 22.4245 27.0741 15.7752 27.0741Z" fill="#CCDEC0"/>
</svg>
