<svg width="153" height="24" viewBox="0 0 153 24" fill="none" xmlns="http://www.w3.org/2000/svg">
<path d="M0 11.7795C0 5.30539 4.8202 0.0117188 12.5075 0.0117188C15.036 0.0117188 17.5974 0.350382 20.0601 1.3598V6.44962C17.5974 5.43691 15.1051 5.03249 13.0468 5.03249C8.29233 5.03249 5.52712 7.89962 5.52712 11.7762C5.52712 15.6527 8.29233 18.5199 13.0468 18.5199C15.1051 18.5199 17.5974 18.1154 20.0601 17.1027V22.1925C17.5974 23.2053 15.036 23.5406 12.5075 23.5406C4.8202 23.5472 0 18.2535 0 11.7795Z" fill="white"/>
<path d="M69.4858 0.484375H74.7795V23.0729H69.9232L57.8858 8.53997V23.0729H52.625V0.484375H57.4452L69.4826 14.9812V0.484375H69.4858Z" fill="white"/>
<path d="M99.6754 5.10401H92.764V23.0762H87.3684V5.10401H80.457V0.484375H99.6754V5.10401Z" fill="white"/>
<path d="M119.313 23.0729L113.21 15.014H110.58V23.0729H105.355V0.484375H114.223C119.349 0.484375 122.821 3.35151 122.821 7.80017C122.821 10.835 121.171 13.0938 118.504 14.2414L125.383 23.0762H119.313V23.0729ZM110.58 5.23553V10.3615H114.256C116.009 10.3615 117.324 9.45074 117.324 7.80017C117.324 6.04767 116.009 5.23882 114.256 5.23882H110.58V5.23553Z" fill="white"/>
<path d="M128.219 11.7795C128.219 5.3054 133.309 0.0117188 140.322 0.0117188C147.335 0.0117188 152.425 5.3054 152.425 11.7795C152.425 18.2535 147.335 23.5472 140.322 23.5472C133.309 23.5472 128.219 18.2535 128.219 11.7795ZM146.898 11.7795C146.898 7.93579 144.1 5.10483 140.322 5.10483C136.544 5.10483 133.746 7.93579 133.746 11.7795C133.746 15.6231 136.511 18.4541 140.322 18.4541C144.133 18.4541 146.898 15.6231 146.898 11.7795Z" fill="white"/>
<path d="M25.3194 3.15977C25.3194 1.24615 27.1739 0 32.6122 0C40.3883 0 47.0137 3.13017 47.0137 8.6573C47.0137 11.4225 44.4326 12.8791 41.4536 11.6658L35.3774 9.17351C33.98 8.59482 33.3718 9.71932 34.5883 10.5709L43.6435 16.8608C45.0113 17.8341 45.7708 18.9257 45.7708 20.0502C45.7708 23.0883 42.1244 23.9991 38.0835 23.9991C34.0129 24.0287 29.4557 23.3316 27.6934 22.5096C26.0823 21.7501 25.234 20.7769 25.3227 19.0474C25.4148 17.2258 26.7793 16.4959 29.3933 17.4067L41.8186 21.7501C43.3081 22.2663 44.1268 21.0202 44.1268 20.3527C44.1268 19.5932 43.8835 18.9849 42.4565 18.5312L30.6065 14.7631C27.9334 13.9115 27.5093 12.4845 27.5093 11.36C27.5093 9.90345 28.2984 8.50276 30.6065 8.22986L41.4832 6.89164C43.3377 6.64833 44.0347 6.04005 44.0347 5.15887C44.0347 4.27768 43.2456 3.48856 41.4832 3.63981L28.1142 4.82349C25.8357 5.03721 25.3194 4.12315 25.3194 3.15319V3.15977Z" fill="white"/>
</svg>
